<?xml version="1.0" standalone="no"?>
<!DOCTYPE svg PUBLIC "-//W3C//DTD SVG 20010904//EN"
 "http://www.w3.org/TR/2001/REC-SVG-20010904/DTD/svg10.dtd">
<svg version="1.0" xmlns="http://www.w3.org/2000/svg"
 width="1122.000000pt" height="1122.000000pt" viewBox="0 0 1122.000000 1122.000000"
 preserveAspectRatio="xMidYMid meet">
<metadata>
Created by potrace 1.16, written by Peter Selinger 2001-2019
</metadata>
<g transform="translate(0.000000,1122.000000) scale(0.100000,-0.100000)"
fill="#000000" stroke="none">
<path d="M0 5610 l0 -5610 5610 0 5610 0 0 5610 0 5610 -5610 0 -5610 0 0
-5610z m5935 4818 c1667 -105 3166 -1081 3959 -2577 600 -1132 720 -2505 325
-3729 -482 -1490 -1632 -2644 -3116 -3125 -748 -243 -1545 -298 -2333 -161
-1714 298 -3159 1535 -3726 3189 -349 1015 -349 2130 -1 3150 87 254 242 596
377 830 437 761 1089 1404 1853 1828 110 61 122 65 176 63 66 -2 96 -18 138
-73 15 -21 373 -479 794 -1020 452 -578 772 -996 779 -1018 21 -63 -6 -135
-63 -168 -17 -9 -250 -13 -1020 -17 l-997 -5 157 -119 c87 -65 473 -356 858
-645 385 -289 719 -543 742 -564 70 -64 80 -143 27 -206 -49 -59 -136 -64
-197 -12 -29 25 -457 347 -1666 1256 -499 374 -500 376 -487 454 7 46 34 82
77 103 32 17 104 18 1092 18 581 0 1057 3 1057 6 0 11 -1303 1674 -1312 1674
-14 0 -187 -102 -308 -183 -1025 -678 -1735 -1753 -1954 -2957 -89 -491 -98
-987 -26 -1481 262 -1798 1587 -3273 3345 -3724 539 -138 1103 -178 1645 -115
1544 179 2882 1131 3560 2531 458 948 570 2036 316 3064 -271 1095 -959 2066
-1906 2689 -416 274 -876 478 -1352 600 -745 191 -1499 193 -2240 7 -198 -50
-269 -72 -266 -83 2 -5 356 -461 787 -1014 l784 -1004 1551 0 c1457 0 1553 -1
1585 -18 19 -9 44 -30 55 -45 28 -38 29 -115 1 -153 -11 -15 -374 -290 -805
-611 -432 -322 -904 -674 -1050 -783 -146 -108 -461 -343 -700 -521 -239 -179
-456 -340 -482 -358 l-48 -34 0 -1217 0 -1217 33 -10 c17 -6 163 -58 322 -115
160 -58 470 -170 690 -248 220 -79 415 -154 433 -167 85 -63 81 -178 -10 -233
-33 -20 -54 -20 -1654 -20 l-1621 0 -34 23 c-87 58 -88 178 -2 234 25 17 103
18 1233 23 l1205 5 -389 140 c-215 77 -404 149 -420 160 -17 11 -39 36 -48 55
-17 33 -18 119 -18 1361 l0 1326 23 34 c25 39 2 21 1610 1219 l1188 885 -1378
5 c-1025 4 -1383 8 -1398 17 -11 6 -34 26 -51 45 -17 18 -377 476 -799 1018
-423 542 -807 1034 -854 1093 -104 130 -131 173 -131 210 0 36 23 80 55 105
14 11 25 25 25 30 0 6 82 38 183 71 585 191 1204 269 1822 229z"/>
</g>
</svg>
